<?xml version="1.0" encoding="UTF-8"?>
<svg width="24px" height="24px" viewBox="0 0 24 24" version="1.1" xmlns="http://www.w3.org/2000/svg" xmlns:xlink="http://www.w3.org/1999/xlink">
    <!-- Generator: Sketch 50.2 (55047) - http://www.bohemiancoding.com/sketch -->
    <title>spinner - FontAwesome</title>
    <desc>Created with Sketch.</desc>
    <defs></defs>
    <g id="Home" stroke="none" stroke-width="1" fill="none" fill-rule="evenodd">
        <g transform="translate(-109.000000, -32.000000)" fill="#FFFFFF" id="spinner---FontAwesome">
            <path d="M116.044651,51.098212 C116.044651,52.0357131 115.281257,52.8124998 114.330363,52.8124998 C113.392862,52.8124998 112.616076,52.0357131 112.616076,51.098212 C112.616076,50.147318 113.392862,49.3839243 114.330363,49.3839243 C115.281257,49.3839243 116.044651,50.147318 116.044651,51.098212 Z M122.714302,53.8571439 C122.714302,54.8080379 121.950908,55.5714316 121.000014,55.5714316 C120.04912,55.5714316 119.285727,54.8080379 119.285727,53.8571439 C119.285727,52.9062499 120.04912,52.1428561 121.000014,52.1428561 C121.950908,52.1428561 122.714302,52.9062499 122.714302,53.8571439 Z M113.285719,44.4285612 C113.285719,45.3794552 112.522326,46.142849 111.571432,46.142849 C110.620538,46.142849 109.857144,45.3794552 109.857144,44.4285612 C109.857144,43.4776672 110.620538,42.7142735 111.571432,42.7142735 C112.522326,42.7142735 113.285719,43.4776672 113.285719,44.4285612 Z M129.383953,51.098212 C129.383953,52.0357131 128.607166,52.8124998 127.669665,52.8124998 C126.718771,52.8124998 125.955377,52.0357131 125.955377,51.098212 C125.955377,50.147318 126.718771,49.3839243 127.669665,49.3839243 C128.607166,49.3839243 129.383953,50.147318 129.383953,51.098212 Z M116.473223,37.7589104 C116.473223,38.9374832 115.508936,39.9017701 114.330363,39.9017701 C113.151791,39.9017701 112.187504,38.9374832 112.187504,37.7589104 C112.187504,36.5803376 113.151791,35.6160507 114.330363,35.6160507 C115.508936,35.6160507 116.473223,36.5803376 116.473223,37.7589104 Z M132.142885,44.4285612 C132.142885,45.3794552 131.379491,46.142849 130.428597,46.142849 C129.477703,46.142849 128.714309,45.3794552 128.714309,44.4285612 C128.714309,43.4776672 129.477703,42.7142735 130.428597,42.7142735 C131.379491,42.7142735 132.142885,43.4776672 132.142885,44.4285612 Z M123.571446,34.9999785 C123.571446,36.4196231 122.419659,37.5714102 121.000014,37.5714102 C119.58037,37.5714102 118.428583,36.4196231 118.428583,34.9999785 C118.428583,33.580334 119.58037,32.4285469 121.000014,32.4285469 C122.419659,32.4285469 123.571446,33.580334 123.571446,34.9999785 Z M130.669669,37.7589104 C130.669669,39.4196267 129.316989,40.758914 127.669665,40.758914 C126.008949,40.758914 124.669662,39.4196267 124.669662,37.7589104 C124.669662,36.111587 126.008949,34.7589068 127.669665,34.7589068 C129.316989,34.7589068 130.669669,36.111587 130.669669,37.7589104 Z"></path>
        </g>
    </g>
</svg>